<svg xmlns="http://www.w3.org/2000/svg" viewBox="0 0 100 100">
  <g fill="#F5C342">
    <!-- 圆形果体 -->
    <circle cx="50" cy="64" r="28"/>
    <!-- 顶部左苞叶 -->
    <path d="M33,43 C27,30 26,16 32,8 C39,10 42,26 41,43Z"/>
    <!-- 顶部中苞叶（最高） -->
    <path d="M44,39 C43,25 46,12 50,5 C54,12 57,25 56,39Z"/>
    <!-- 顶部右苞叶 -->
    <path d="M59,43 C58,26 61,10 68,8 C74,16 73,30 67,43Z"/>
    <!-- 左侧小苞叶 -->
    <path d="M22,63 C14,57 6,55 4,62 C6,70 14,70 22,68Z"/>
    <!-- 右侧小苞叶 -->
    <path d="M78,63 C86,57 94,55 96,62 C94,70 86,70 78,68Z"/>
  </g>
</svg>
